<?xml version="1.0" encoding="utf-8"?>
<!-- Svg Vector Icons : http://www.onlinewebfonts.com/icon -->
<!DOCTYPE svg PUBLIC "-//W3C//DTD SVG 1.1//EN" "http://www.w3.org/Graphics/SVG/1.1/DTD/svg11.dtd">
<svg version="1.1" xmlns="http://www.w3.org/2000/svg" xmlns:xlink="http://www.w3.org/1999/xlink" x="0px" y="0px" viewBox="0 0 1000 1000" enable-background="new 0 0 1000 1000" xml:space="preserve">
<metadata> Svg Vector Icons : http://www.onlinewebfonts.com/icon </metadata>
<g><g transform="translate(0.000000,511.000000) scale(0.100000,-0.100000)"><path d="M3364,3143.5c-1603.6-419.1-1692.7-445.5-1802.1-518.3c-135.7-95.2-275.4-277.4-319.9-419.1c-105.3-344.2-10.1-805.9,210.6-1020.5c64.8-62.8,538.6-364.5,753.2-479.9c28.3-14.2,129.6-46.6,228.8-68.8c700.6-168.1,1273.6-739.1,1468-1459.9c44.6-166,50.6-238.9,52.6-498.1c0-336.1-36.4-534.5-147.8-797.8l-58.7-137.7l698.6-453.6c384.7-249,759.3-488,834.2-528.5c180.2-101.2,413-151.9,544.7-117.4c95.2,22.3,1263.5,362.4,2767.9,799.8c435.3,127.6,888.9,255.1,1010.4,285.5c240.9,60.7,295.6,95.1,295.6,190.3c0,70.9-46.6,123.5-166,184.3c-48.6,24.3-111.4,60.7-143.8,83l-54.7,40.5l4.1,488l6.1,488l137.7,34.4c76.9,18.2,155.9,50.6,178.2,70.9c48.6,44.5,50.6,151.9,4.1,196.4c-20.3,16.2-220.7,111.4-445.5,206.5c-226.8,97.2-411,184.3-411,192.4c0,8.1,103.3,42.5,228.8,79c386.7,111.3,425.2,127.6,447.5,190.3c36.4,101.2-2,153.9-184.3,251.1c-145.8,79-168.1,99.2-178.2,153.9c-6.1,36.5-10.1,259.2-6.1,498.1l6.1,433.3l141.7,46.6c188.3,60.7,243,145.8,157.9,249.1c-24.3,28.3-763.3,334.1-2211.1,913.2c-1830.4,733-2190.8,870.7-2267.8,868.6C5093.1,3584.8,4291.3,3386.4,3364,3143.5z M9090.1,796.7V148.8L8559.6-21.3c-293.6-95.2-846.4-273.3-1231.1-396.9c-384.7-123.5-913.2-293.6-1174.4-378.6C5591.2-979,5506.2-989.2,5354.3-896c-141.7,87.1-198.4,204.5-208.5,435.3c-20.2,411,176.2,702.6,550.8,811.9c78.9,22.3,500.1,155.9,933.4,295.6c895,287.5,2448,789.7,2456.1,793.7C9088.1,1440.6,9090.1,1151,9090.1,796.7z M9308.8-1505.5l-6.1-639.9l-121.5-36.4c-66.8-20.3-585.2-170.1-1154.1-334.1c-567-164-1229.1-354.3-1468-425.2c-777.5-228.8-838.3-241-982-174.1c-182.2,81-265.2,265.3-249,550.8c14.2,220.7,89.1,396.8,228.8,532.5c83,81,123.5,101.3,370.5,182.2c151.9,48.6,724.9,218.7,1269.5,374.6c546.7,155.9,1239.2,356.3,1538.8,445.4c301.7,89.1,552.8,162,562.9,162C9306.7-865.6,9310.8-1153.2,9308.8-1505.5z"/><path d="M1527.5,458.6C1225.8,393.8,924.1,233.8,683.1,7.1C290.3-359.5,100-798.8,100-1331.3c0-520.4,186.3-961.8,558.8-1318.1c226.8-216.7,425.2-332.1,737-433.3c230.8-74.9,635.8-93.1,892.9-42.5c324,64.8,621.6,220.7,872.7,455.6c273.3,257.1,447.5,544.6,536.6,890.9c68.8,275.4,68.8,619.6-2,897C3558.3-339.2,3200,88,2681.6,331c-249,117.4-455.6,160-759.3,157.9C1782.6,488.9,1606.4,474.8,1527.5,458.6z M2045.8-102.3c70.9-54.7,79-107.3,79-568.9v-457.6h455.6c556.8,0,597.3-12.1,597.3-184.3c0-36.4-20.2-79-50.6-109.3l-48.6-50.6h-477.9h-475.8v-467.7c0-295.6-8.1-481.9-22.3-506.2c-32.4-62.8-133.6-99.2-204.5-74.9c-113.4,40.5-117.4,62.8-117.4,577.1v471.8h-475.8H826.9l-48.6,50.6c-54.7,54.7-66.8,160-24.3,214.6c54.7,70.9,107.3,79,569,79h457.6v457.6c0,307.7,8.1,469.7,24.3,500.1c34.4,64.8,79,93.1,147.8,93.1C1987.1-78,2027.6-88.1,2045.8-102.3z"/></g></g>
</svg>